<?xml version="1.0" encoding="UTF-8" standalone="no"?>
<svg
   xmlns:dc="http://purl.org/dc/elements/1.1/"
   xmlns:cc="http://creativecommons.org/ns#"
   xmlns:rdf="http://www.w3.org/1999/02/22-rdf-syntax-ns#"
   xmlns:svg="http://www.w3.org/2000/svg"
   xmlns="http://www.w3.org/2000/svg"
   xmlns:sodipodi="http://sodipodi.sourceforge.net/DTD/sodipodi-0.dtd"
   xmlns:inkscape="http://www.inkscape.org/namespaces/inkscape"
   width="169.62437mm"
   height="72.83979mm"
   viewBox="0 0 169.62437 72.83979"
   version="1.1"
   id="svg8"
   inkscape:version="1.0.2 (e86c8708, 2021-01-15)"
   sodipodi:docname="drawing.svg">
  <defs
     id="defs2" />
  <sodipodi:namedview
     id="base"
     pagecolor="#ffffff"
     bordercolor="#666666"
     borderopacity="1.0"
     inkscape:pageopacity="0.0"
     inkscape:pageshadow="2"
     inkscape:zoom="0.35"
     inkscape:cx="397.91608"
     inkscape:cy="558.42855"
     inkscape:document-units="mm"
     inkscape:current-layer="g1636"
     inkscape:document-rotation="0"
     showgrid="false"
     fit-margin-top="0"
     fit-margin-left="0"
     fit-margin-right="0"
     fit-margin-bottom="0"
     inkscape:window-width="1252"
     inkscape:window-height="755"
     inkscape:window-x="0"
     inkscape:window-y="23"
     inkscape:window-maximized="0" />
  <metadata
     id="metadata5">
    <rdf:RDF>
      <cc:Work
         rdf:about="">
        <dc:format>image/svg+xml</dc:format>
        <dc:type
           rdf:resource="http://purl.org/dc/dcmitype/StillImage" />
        <dc:title></dc:title>
      </cc:Work>
    </rdf:RDF>
  </metadata>
  <g
     inkscape:label="Layer 1"
     inkscape:groupmode="layer"
     id="layer1"
     transform="translate(-0.55136998,-0.41577823)">
    <g
       id="g1636"
       transform="matrix(0.26458333,0,0,0.26458333,-133.56592,124.82286)">
      <path
         id="XMLID_743_"
         fill="none"
         d="m 773.2,-244.9 h 8.6 v 8.8 h -8.6 z" />
      <g
         id="XMLID_2_"
         transform="translate(502.3,-473.4)">
        <path
           id="XMLID_5_"
           class="st96"
           d="m 189.6,52 h 7.6 v 40.6 h -17 c -1.7,0 -3.1,-0.6 -4.2,-1.7 -1.1,-1.1 -1.7,-2.5 -1.7,-4.2 V 52 h 7.6 v 30 c 0,0.8 0.3,1.4 0.9,2 0.6,0.6 1.3,0.9 2,0.9 h 4.7 z" />
        <path
           id="XMLID_10_"
           class="st96"
           d="m 203.9,52 h 17 c 1.6,0 3,0.6 4.2,1.8 1.2,1.2 1.8,2.6 1.8,4.2 v 8.9 l -7.6,-1.7 v -2.4 c 0,-0.8 -0.3,-1.5 -0.9,-2.1 -0.6,-0.6 -1.3,-0.9 -2.1,-0.9 h -4.7 v 33 H 204 Z" />
        <path
           id="XMLID_13_"
           class="st96"
           d="m 231.1,33.4 7.6,-1.7 V 52 h 9.3 c 1.6,0 3,0.6 4.2,1.7 1.2,1.1 1.8,2.6 1.8,4.2 v 28.8 c 0,1.6 -0.6,3 -1.8,4.2 -1.2,1.2 -2.6,1.8 -4.2,1.8 H 231 V 33.4 Z M 243.4,85 c 0.8,0 1.5,-0.3 2.1,-0.9 0.6,-0.6 0.9,-1.3 0.9,-2.1 V 62.6 c 0,-0.8 -0.3,-1.5 -0.9,-2.1 -0.6,-0.6 -1.3,-0.9 -2.1,-0.9 h -4.6 V 85 Z" />
        <path
           id="XMLID_17_"
           class="st96"
           d="m 275.3,52 c 1.6,0 3,0.6 4.2,1.8 1.2,1.2 1.8,2.6 1.8,4.2 v 34.7 h -16.9 c -1.6,0 -3,-0.6 -4.2,-1.7 -1.2,-1.1 -1.8,-2.5 -1.8,-4.2 V 74.4 c 0,-1.6 0.6,-3 1.8,-4.2 1.2,-1.2 2.6,-1.8 4.2,-1.8 h 6.3 c 0.9,0 1.6,-0.3 2.1,-0.9 0.5,-0.6 0.9,-1.3 0.9,-2.1 v -3 c 0,-0.8 -0.3,-1.5 -0.9,-2.1 -0.6,-0.6 -1.3,-0.9 -2.1,-0.9 h -8.8 l 1.7,-7.6 z m -6.4,33 h 4.7 v -8.9 h -4.7 c -0.8,0 -1.5,0.3 -2.1,0.9 -0.6,0.6 -0.8,1.2 -0.8,2 v 3 c 0,0.8 0.3,1.5 0.9,2.1 0.5,0.6 1.2,0.9 2,0.9 z" />
        <path
           id="XMLID_21_"
           class="st96"
           d="m 293.5,92.6 h -7.6 V 52 h 17 c 1.6,0 3,0.6 4.2,1.7 1.2,1.1 1.8,2.5 1.8,4.1 v 34.8 h -7.6 V 62.5 c 0,-0.8 -0.3,-1.5 -0.9,-2.1 -0.6,-0.6 -1.3,-0.9 -2.1,-0.9 h -4.7 z" />
        <path
           id="XMLID_23_"
           class="st96"
           d="m 320.1,92.6 c -1.6,0 -3,-0.6 -4.2,-1.8 -1.2,-1.2 -1.8,-2.6 -1.8,-4.2 V 52 h 7.6 v 30 c 0,0.8 0.3,1.5 0.9,2.1 0.6,0.6 1.3,0.9 2.1,0.9 h 4.7 V 52 h 7.6 v 30 c 0,0.8 0.3,1.5 0.9,2.1 0.6,0.6 1.3,0.9 2.1,0.9 h 4.6 V 52 h 7.6 v 40.6 z" />
        <path
           id="XMLID_25_"
           class="st96"
           d="m 365.9,92.6 h -7.6 V 33.4 l 7.6,-1.7 V 52 h 9.3 c 1.6,0 3,0.6 4.1,1.8 1.1,1.2 1.7,2.6 1.7,4.2 v 34.7 h -7.6 V 62.5 c 0,-0.8 -0.3,-1.5 -0.9,-2.1 -0.6,-0.6 -1.3,-0.9 -2.1,-0.9 h -4.6 z" />
        <path
           id="XMLID_27_"
           class="st96"
           d="m 408.3,70.2 c 0,1.6 -0.6,3 -1.7,4.2 -1.1,1.2 -2.5,1.8 -4.2,1.8 H 393 V 82 c 0,0.8 0.3,1.5 0.9,2.1 0.6,0.6 1.3,0.9 2.1,0.9 h 10.6 l 1.7,7.6 h -17 c -1.6,0 -3,-0.6 -4.2,-1.8 -1.2,-1.2 -1.8,-2.6 -1.8,-4.2 V 57.8 c 0,-1.6 0.6,-3 1.8,-4.1 1.2,-1.1 2.6,-1.7 4.2,-1.7 h 11 c 1.7,0 3.1,0.6 4.2,1.7 1.1,1.1 1.7,2.5 1.7,4.1 z m -7.7,-7.7 c 0,-0.8 -0.3,-1.5 -0.9,-2.1 -0.6,-0.6 -1.3,-0.9 -2.1,-0.9 H 396 c -0.9,0 -1.6,0.3 -2.1,0.9 -0.5,0.6 -0.9,1.3 -0.9,2.1 v 5.9 h 4.7 c 0.8,0 1.5,-0.3 2.1,-0.9 0.6,-0.6 0.9,-1.3 0.9,-2.1 v -2.9 z" />
        <path
           id="XMLID_32_"
           class="st96"
           d="m 435.5,70.2 c 0,1.6 -0.6,3 -1.7,4.2 -1.1,1.2 -2.5,1.8 -4.2,1.8 h -9.3 V 82 c 0,0.8 0.3,1.5 0.9,2.1 0.6,0.6 1.3,0.9 2.1,0.9 h 10.6 l 1.7,7.6 h -17 c -1.6,0 -3,-0.6 -4.2,-1.8 -1.2,-1.2 -1.8,-2.6 -1.8,-4.2 V 57.8 c 0,-1.6 0.6,-3 1.8,-4.1 1.2,-1.1 2.6,-1.7 4.2,-1.7 h 11.1 c 1.7,0 3.1,0.6 4.2,1.7 1.1,1.1 1.7,2.5 1.7,4.1 z m -7.7,-7.7 c 0,-0.8 -0.3,-1.5 -0.8,-2.1 -0.6,-0.6 -1.3,-0.9 -2.1,-0.9 h -1.7 c -0.9,0 -1.6,0.3 -2.1,0.9 -0.5,0.6 -0.9,1.3 -0.9,2.1 v 5.9 h 4.7 c 0.8,0 1.5,-0.3 2.1,-0.9 0.6,-0.6 0.8,-1.3 0.8,-2.1 z" />
        <path
           id="XMLID_35_"
           class="st96"
           d="m 440.6,33.6 7.6,-1.7 v 60.8 h -7.6 z" />
        <path
           id="XMLID_37_"
           class="st96"
           d="m 476,64.7 h -7.6 v -2.1 c 0,-0.8 -0.3,-1.5 -0.8,-2.1 -0.5,-0.6 -1.3,-0.9 -2.1,-0.9 h -1.7 c -0.8,0 -1.5,0.3 -2.1,0.9 -0.6,0.6 -0.9,1.3 -0.9,2.1 v 3 c 0,0.8 0.3,1.5 0.9,2.1 0.6,0.6 1.3,0.9 2.1,0.9 h 6.4 c 1.6,0 3,0.6 4.1,1.8 1.1,1.2 1.7,2.6 1.7,4.2 V 87 c -0.1,1.6 -0.7,2.9 -1.9,4 -1.2,1.1 -2.5,1.6 -4,1.6 H 459 c -1.6,0 -3,-0.6 -4.1,-1.8 -1.1,-1.2 -1.7,-2.6 -1.7,-4.2 v -6.7 h 7.5 V 82 c 0,0.8 0.3,1.5 0.9,2.1 0.6,0.6 1.3,0.9 2.1,0.9 h 1.7 c 0.8,0 1.5,-0.3 2.1,-0.9 0.6,-0.6 0.8,-1.3 0.8,-2.1 v -3 c 0,-0.8 -0.3,-1.5 -0.8,-2.1 C 467,76.3 466.2,76 465.4,76 H 459 c -1.6,0 -3,-0.6 -4.1,-1.8 -1.1,-1.2 -1.7,-2.6 -1.7,-4.2 V 57.9 c 0,-1.6 0.6,-3 1.7,-4.2 1.1,-1.2 2.5,-1.8 4.1,-1.8 h 11.1 c 1.6,0 3,0.6 4.1,1.8 1.1,1.2 1.7,2.6 1.7,4.2 z" />
      </g>
      <g
         id="XMLID_738_"
         transform="translate(502.3,-473.4)">
        <g
           id="XMLID_742_">
          <path
             id="XMLID_770_"
             class="st97"
             d="m 624.3,178.2 c -0.7,-2.6 -2.1,-5.5 -4.8,-6.5 -3,-1.1 -6.2,0 -9.2,0.9 -2.4,-0.5 -4.5,-1.6 -6.8,-2.5 L 554,150.9 c -1.1,-4.4 -1.9,-9.8 -6.4,-12 -7.3,-3 -14.8,-5.6 -22.1,-8.6 -2.3,-1 -4.8,-0.9 -7.3,-1 2.2,-7.7 4,-15.5 6.4,-23.2 1,-3.2 3.4,-5.7 6.3,-7.2 2.4,-1.2 4.6,-3 7.3,-3.6 2.8,1.6 4.9,4.2 7.7,5.8 7.5,4.8 16.5,6 25.2,5.3 17.2,-2.1 31.9,-16.3 35,-33.2 1.3,-8.1 0.7,-16.9 -3.1,-24.3 -4.6,-9.6 -13.5,-17.2 -23.8,-19.8 -14.6,-4.1 -31,1.4 -40.8,12.8 -6.3,7.8 -10.6,17.6 -9.9,27.7 -0.3,4.6 1.1,9 2.5,13.3 -4,2.9 -8.7,4.5 -12.3,7.8 -3.6,3.1 -6,7.4 -7.4,11.9 -2.9,9.9 -5.2,19.9 -8.3,29.7 -10.4,-3.1 -20.9,-6.3 -31.8,-7.2 -6.8,-0.1 -13.8,-0.5 -20.5,1.2 -10.3,2.2 -19.5,7.9 -27.4,14.8 -6.1,5.2 -11.9,10.8 -18.9,14.7 -3.2,1.7 -6.4,3.5 -10.1,3.8 -0.1,-3.5 0.2,-7.1 -0.1,-10.6 -1.5,-4.1 -5.4,-6.6 -9.2,-8.3 -10.2,-4.3 -21.5,-4.8 -32.4,-4.2 -7,1 -14.1,2.2 -20.3,5.8 -2.1,1.3 -4.3,2.9 -5.4,5.2 -1.7,3.6 -0.8,7.7 -1.1,11.6 h -3 c -0.4,-4.2 0.8,-8.8 -1.5,-12.6 -3.2,-4.6 -8.8,-6.3 -13.8,-7.9 -6,-1.6 -12.3,-2.5 -18.6,-2.3 -8.1,-0.2 -16.3,1 -23.9,3.8 -4.4,1.8 -9.3,4.5 -10.6,9.5 -0.4,3.3 -0.1,6.7 -0.2,10 -5.3,-1.4 -10,-4.1 -14.5,-7.1 -8.3,-6 -15.2,-13.7 -24,-19 -6.1,-4.1 -13.2,-6.5 -20.4,-7.8 -16.6,-2.4 -33.2,1.6 -48.9,6.8 -3.2,-10.4 -5.7,-21 -8.9,-31.5 -1.3,-3.6 -3.3,-6.9 -6.1,-9.5 -3.7,-3.6 -8.6,-5.7 -13,-8.3 1.3,-4.4 2.8,-8.9 2.3,-13.5 0.6,-7.7 -1.8,-15.4 -5.7,-22 -5.5,-9.8 -15.5,-16.5 -26.4,-19 -10.2,-2.1 -21.5,-0.5 -30,5.8 -7.5,5 -12.9,12.9 -14.9,21.6 -2.9,11.1 -0.5,23.3 6,32.7 3.4,5.6 8.7,9.5 14.2,12.9 5.6,3.1 12,5.2 18.5,4.9 7.1,0.4 14.4,-1.4 20.6,-5 2.8,-1.6 5,-4.1 7.6,-6 2,-0.4 3.6,1.3 5.3,2.1 3.7,2 7.8,4.5 8.9,8.9 2.1,7.7 4.3,15.3 6.2,23 -2.5,0 -5.1,-0.2 -7.4,0.8 -7,2.9 -14.2,5.6 -21.2,8.4 -3.4,1.3 -5.5,4.5 -6.1,8 -0.6,1.8 -0.2,4.5 -2.5,5 -12.2,4.7 -24.4,9.5 -36.6,14.1 -6.1,2.2 -12,5 -18.2,7 -3.6,-1.3 -8.4,-2.6 -11.5,0.6 -3.1,3.4 -3.6,8.4 -3.2,12.9 0.9,7.4 4.1,14.8 9.9,19.7 2.2,2.2 5.2,2.9 8.1,3.6 1.8,-0.9 3.9,-1.5 5.2,-3.2 1.1,-1.4 1.6,-3.1 2.7,-4.5 1.4,-0.9 2.9,-1.3 4.4,-1.9 16.7,-6.4 33.3,-12.9 49.9,-19.4 3.1,-1.5 5.2,2.1 7.6,3.4 -0.2,0.8 -0.5,1.7 -0.7,2.5 -13.9,3 -26.9,9.4 -38.8,17.1 -6.9,4.9 -13.4,10.3 -19.2,16.5 -1.6,1.6 -2.6,3.8 -2.2,6.1 -0.1,2.9 2.3,4.7 4.4,6.3 2.9,0.1 6.3,0 8.1,-2.7 2.3,-3 1.2,-6.9 -0.5,-9.9 13.1,-10.3 28.5,-17.4 44.7,-21.1 2.9,-0.7 5.9,-1 8.9,-0.9 2.7,0.2 5.4,1.6 8.1,0.6 3.6,-1.2 7.1,-2.8 10.7,-4.2 2.6,-0.9 4.8,-2.7 6.9,-4.5 1.6,-1.6 4.1,-1.2 6.1,-2 1.6,-1 2.6,-2.6 3.7,-4 2,0 4.2,0.1 5.6,-1.5 2.7,-3.3 7.3,-3.1 11.1,-3.9 6.7,-0.5 13.4,-1.7 20,-0.6 17.2,0.8 33.8,6 49.5,12.8 2.5,0.8 4.8,2 7,3.4 1.8,1 3.8,1.8 5.3,3.3 -1.4,0.1 -2.9,0.1 -4.3,0.1 -0.8,-0.9 -1.7,-1.9 -2.6,-2.7 -9.1,-5.3 -20.3,-4.4 -30,-1.5 -2.8,1.4 -4.3,4.2 -4,7.2 -2.5,1.7 -5,3.6 -6.3,6.4 0.8,0.5 1.7,0.9 2.5,1.4 l 2.4,-3.6 c 0.9,2.2 1.6,4.9 3.9,6.1 2,-0.7 4,-1.4 6,-2 -1.6,-0.1 -3.2,-0.3 -4.8,-0.7 -1.3,-0.6 -2.5,-1.3 -3.6,-2.1 0.4,-0.1 1,-0.4 1.4,-0.5 0.7,-0.3 1.5,-0.5 2.2,-0.7 0.8,-0.3 1.6,-0.5 2.4,-0.7 6.1,-1.8 12.5,-1.5 18.7,-1.5 6.5,0.1 13,-0.2 19.4,0.2 0.9,-1.4 1.3,-3.8 3.3,-3.9 2,-0.2 4,0 5.9,0.9 0.9,1.5 1.1,3.1 1.6,4.7 6.6,-6.6 15.3,-10.8 24.1,-13.8 -8.5,0.5 -16.1,5 -23.7,8.3 13.9,-9.6 30.7,-13.8 47.2,-15.8 7.6,-0.6 15.3,-0.4 22.9,-0.2 11.3,1 22.4,3.5 33,7.5 6.1,2.4 12.3,5.3 17.1,9.9 -7.8,-4.4 -16.1,-9 -25.2,-9.6 7.7,2.5 15.2,6.1 21.5,11.3 1.2,0.9 2,2.2 2.6,3.6 0.4,0.5 0.9,1.3 1.5,1.5 0.1,0 0.1,0 0.2,0.1 h 0.4 c 0.4,0 0.8,0 1.1,-0.1 0.3,-0.1 0.5,-0.2 0.7,-0.3 0.1,-0.1 0.2,-0.1 0.4,-0.2 0.6,-0.4 1.2,-0.9 1.8,-1.4 -1,0 -2,-0.1 -2.9,-0.1 1.3,-1.2 2.4,-3.1 4.2,-3.5 2.5,0.8 4.7,2.7 7.4,3.1 0.3,0 1,-0.1 1.3,-0.2 -1.6,-0.6 -3.2,-1.1 -4.8,-1.8 5.6,-0.6 11.2,0.3 16.8,0 5.5,0.2 11.2,-0.6 16.7,0.6 3.5,0.3 7,1.3 9.9,3.4 -2.2,-0.4 -4.3,-1 -6.5,-0.7 1.6,1.1 3.3,1.8 5.1,2.6 1.2,-0.7 2.5,-1.4 3.7,-2.1 1.5,1.3 3.7,2.4 3.7,4.6 1.2,6.7 0.9,13.5 1.2,20.3 1.6,-4.5 0,-9.2 0.6,-13.8 0.5,-3.7 0.3,-7.6 -1.2,-11 -1.2,-2.8 -3.7,-4.5 -6.1,-6.2 -0.2,-1.6 0.1,-3.4 -1,-4.7 -1.5,-2.1 -4,-2.9 -6.3,-3.8 -6.3,-1.9 -13.1,-1.7 -19.6,-0.7 -3.2,1 -6.7,2.1 -8.8,4.9 -1.6,2.5 -4.8,1.3 -7.2,1.5 4,-3.2 8.9,-5.1 13.5,-7.3 13.6,-6.1 28.2,-10.5 43,-12.3 11.1,-0.7 22.4,-1 33.3,1.5 2.3,0.5 3.5,2.7 5.4,3.8 1.3,0.3 2.7,0.2 4,0.2 1,1.4 2,3.1 3.5,4 1.9,1 4.2,0.7 6.2,1.1 2.2,1.8 4.3,4 7,5.1 3.8,1.6 7.6,3 11.5,4.5 2.8,1.2 5.6,-0.3 8.4,-0.5 4.7,-0.1 9.3,1 13.8,2.2 14.3,3.8 27.8,10.7 39.5,19.8 -1.6,3.1 -2.8,7.4 -0.1,10.3 2.9,3.4 8.9,3 11.3,-0.8 1.3,-1.8 0.9,-4 1.1,-6.1 -2.9,-4.5 -7.1,-7.9 -11,-11.5 -13.9,-12 -30.7,-20.5 -48.5,-25.1 -1.1,-0.2 -1.7,-1.5 -1.4,-2.5 1.5,-1.7 3.5,-2.8 5.3,-4.2 14.2,5.1 28.1,10.9 42.1,16.3 4.7,2.1 9.8,3.4 14.3,5.8 1.6,2.5 2.9,5.5 5.9,6.8 2.6,0.3 5.4,0.4 7.7,-1 6.2,-3.7 9.8,-10.5 11.7,-17.3 0.5,-4.2 0.5,-8.3 0.1,-12.3 z m -594.2,0.5 c -1.5,2.4 -0.9,5.4 -1,8.1 -0.1,2.9 0.6,5.8 0.9,8.6 -2.6,-4.9 -3.7,-10.7 -2.6,-16.1 0.8,-3.7 4.2,-6.9 8.2,-5.5 -1.8,1.7 -4.5,2.5 -5.5,4.9 z m 8.4,11.1 c -2.4,-3.4 -2.9,-8.1 -1.3,-12 0.3,-0.9 1.3,-1.2 2,-1.8 0,4.6 -1.1,9.2 -0.7,13.8 z m 11,-12.7 c -0.7,2.7 -0.1,5.6 -0.5,8.4 -2.4,-3.7 -2.9,-8.8 -0.8,-12.7 0.4,0 1.4,-0.1 1.8,-0.1 0,1.4 -0.1,2.9 -0.5,4.4 z M 60,174.6 c -0.1,2.2 0.1,4.5 -0.2,6.7 -2.3,-3.7 -2.9,-8.8 -0.7,-12.8 0.5,0 1.5,-0.1 2,-0.2 -0.3,2.1 -0.8,4.2 -1.1,6.3 z m 10.7,2.4 c -2.5,-3.7 -3.1,-9.3 -0.3,-13 h 1.7 c -1.5,4.2 -1.3,8.7 -1.4,13 z m 11.2,-4.4 c -0.9,-0.5 -1.5,-1.2 -1.6,-2.2 -1.3,-3 -1.4,-6.5 0.2,-9.4 0,-0.3 0.1,-0.8 0.2,-1 0.7,-0.1 1.4,-0.3 2.2,-0.4 -1.1,4.3 -1.9,8.7 -1,13 z m 11,-13.8 c -0.2,3.6 -0.1,7.3 -0.2,10.9 -0.8,-0.6 -2.1,-1.3 -1.6,-2.5 -1.3,-4.1 -2.1,-9.6 2,-12.4 0.3,1.3 0.2,2.7 -0.2,4 z m -31.2,68.8 c -0.8,1.6 -2.8,1.9 -4.3,2.6 1.5,-2.2 3.1,-4.4 4.4,-6.8 0.5,1.4 0.7,3 -0.1,4.2 z M 69,211.2 c -4,2.4 -7.5,5.7 -11.6,8.1 2.2,-3.4 5.7,-5.5 8.7,-8.1 6.9,-5 14.4,-9.4 22.6,-12 -6.5,4.1 -13.4,7.5 -19.7,12 z m 153.1,-12.8 c -2.4,0.2 -4.6,0.9 -7,0.8 0.4,-0.9 1.2,-1.6 2.1,-1.9 5.2,-2 11,-1.6 16.4,-1.3 1.8,0.6 4.3,0.2 5.3,2 -5.6,0.4 -11.2,-0.4 -16.8,0.4 z m 208.4,-1.5 c 1.6,0.3 2.9,1.2 4.1,2.1 -3.9,0.2 -7.6,-1.3 -11.5,-1.1 -4.5,-0.2 -9.1,0.4 -13.6,-0.3 6.8,-2.4 14.2,-2.3 21,-0.7 z m 156.7,30.2 c -0.3,-1.1 -0.2,-2.2 -0.3,-3.4 2,1.6 2.8,4.2 4,6.4 -1.3,-0.8 -2.8,-1.6 -3.7,-3 z m -3.8,-15.5 c 2.8,2.5 6.1,4.5 8.2,7.7 -4,-2.5 -7.5,-5.6 -11.4,-8.1 -6.4,-4.3 -13.3,-7.9 -19.8,-12 8.3,2.7 16.1,7.1 23,12.4 z M 600.1,61.7 c 0.2,3.4 0.2,6.7 0,10.1 -1.6,8.3 -5.9,16.2 -12.7,21.3 -4.5,3.2 -9.5,5.6 -14.9,6.8 -4.4,0.1 -8.9,0.7 -13.2,-0.6 -6,-1.5 -11.3,-5.2 -15.5,-9.7 0.4,-0.6 0.9,-1.2 1.3,-1.8 1.7,0.2 2.5,1.8 3.7,2.8 2.2,2.3 4.9,3.8 7.7,5.2 -2.9,-2.4 -6,-4.5 -8.1,-7.7 0,-0.4 -0.1,-1.2 -0.1,-1.6 5.6,-3 11,-6.2 16.6,-9.3 1.2,-0.8 2.6,-0.5 4,-0.6 3.3,0.1 6.4,-2.3 7.3,-5.4 1,-2.8 0.1,-6 -2,-8.1 -2.2,-2.6 -6,-1.6 -8.9,-1.6 -1.8,1.1 -3.5,2.7 -4,4.9 -0.5,1.1 -0.4,2.7 -1.5,3.4 -5.2,2.9 -10.4,5.7 -15.4,8.8 -2.3,-4.1 -1.4,-9 0.3,-13.2 0.5,-1.1 1.2,-2.2 2.5,-2.4 4.3,-1.1 8.8,-0.6 13.2,-0.4 2.7,-2.9 6.9,-5.3 10.9,-3.9 4.2,0.9 7.3,4.8 7.9,8.9 0.1,1.6 0,3.3 -0.1,4.9 2.2,2.4 4.7,4.5 6,7.5 1.5,2.8 2,5.9 2.1,9.1 3.8,-4.1 7.3,-8.8 8.7,-14.4 2.1,-7.3 1.4,-15.6 -2.7,-22.1 -4,-7.4 -12,-11.9 -20.1,-13.2 -0.9,0 -1.7,0.1 -2.5,0.1 1.7,0.6 3.1,1.7 4.4,3 0.7,3.9 -2.8,6.7 -6,8 -2.7,1.3 -5.8,1.1 -8.7,1.1 -2.7,0 -5.5,-1.5 -6.3,-4.1 0.4,-1.5 1.1,-2.8 1.7,-4.2 -10,5.3 -15.9,16.7 -16.3,27.8 0.4,3.1 1.1,6.1 2.2,9 -1,0.4 -2,0.8 -3.1,1 -1.4,-4.1 -1.8,-8.5 -1.7,-12.8 -0.3,-9.4 5,-18.3 12,-24.3 5.9,-5.2 13.7,-7.8 21.5,-8 8.2,0.3 16.2,3.7 22,9.6 3.9,4.5 6.9,10.1 7.8,16.1 z m -32.8,4.1 c -1.9,1.1 -2.5,3.3 -3.3,5.2 -0.7,-2.2 -0.3,-4.6 1.7,-6.1 2.5,-2.8 7.1,-1.2 8.3,2.2 -2,-1.4 -4.4,-2 -6.7,-1.3 z m -0.3,6.7 c 1.5,-1.4 3.2,-3.2 5.5,-2.1 0.5,3 -3.8,4.3 -5.5,2.1 z m 10.9,-23.9 c 0,-1.2 0,-2.4 0.1,-3.6 1.2,-0.1 2.3,-0.2 3.5,-0.2 0.8,1.3 1.3,3.5 -0.6,4.1 -0.9,0.8 -2.1,0.1 -3,-0.3 z M 539,49 c 4.3,-7.3 11.6,-12.6 19.7,-15.3 5.1,-1.8 10.6,-1.5 16,-1 5.3,0.9 10,3.5 14.3,6.6 -12.1,-7.6 -28.8,-7.4 -40.3,1.4 -3.2,2.8 -6.3,5.7 -8.5,9.4 -2.3,3.6 -3.6,7.7 -4.8,11.7 -0.5,3.1 -0.1,6.2 -0.8,9.3 -1.2,-7.6 0.2,-15.6 4.4,-22.1 z m -27,69.1 c 1.6,-5.5 3.1,-11.1 4.7,-16.6 1.7,-3.9 4.4,-7.5 8.1,-9.7 9.1,-5.3 18.4,-10.2 27.7,-15.1 -2.7,2.9 -6.5,4.4 -9.7,6.6 -4.6,2.8 -9.4,5.3 -14,8.1 -2.4,1.4 -4.9,2.7 -6.7,4.9 -2.9,3.2 -3.9,7.5 -5,11.6 -2.5,9.1 -4.7,18.3 -7.4,27.3 -0.5,0 -1.5,-0.1 -2,-0.2 0.7,-5.7 2.9,-11.2 4.3,-16.9 z m -137.6,26.3 h 1.4 c 0.6,1.4 0.8,2.9 0.8,4.3 -0.7,-0.1 -1.4,-0.1 -2.1,-0.2 -0.2,-1.4 -0.1,-2.8 -0.1,-4.1 z m -30.7,2.5 c 0.9,-3.5 4.8,-4.6 8,-4.9 6.5,-0.2 13,-0.1 19.5,0.1 1,1.8 0.8,3.8 0.8,5.8 -8.6,-0.8 -17.5,-1.2 -26,0.6 -1,0.5 -3.1,-0.4 -2.3,-1.6 z m -40.8,-3 c 1.8,0.9 2.3,2.7 2,4.6 -0.7,0 -1.3,0.1 -2,0.1 -0.1,-1.6 -0.1,-3.1 0,-4.7 z m 1.9,8 c -0.1,2.7 0.3,5.4 -0.4,8 -0.4,0 -1.1,-0.1 -1.5,-0.1 -0.2,-2.7 -0.1,-5.3 -0.1,-8 0.7,0 1.3,0.1 2,0.1 z m -26.2,-9.8 c 7.1,-1 14.3,-0.6 21.4,0.1 0.2,1.9 0.2,3.8 0.1,5.7 -6.1,-0.8 -12.2,-1 -18.3,-0.6 -3.3,0.3 -6.4,1.1 -9.7,1.2 -0.9,-3.9 3.3,-5.7 6.5,-6.4 z M 76.7,32.6 c 3.7,0 7.5,-0.3 11.1,0.3 10.5,2.5 19.9,9.7 24.4,19.6 1.5,2.8 1.9,6 2.9,9 l 0.2,-0.6 c 0.3,3.4 0.4,6.8 -0.4,10.1 -0.9,-2.1 -1.2,-4.6 -0.7,-6.9 -0.8,-7.6 -4.7,-14.7 -9.9,-20.2 -7.4,-7.3 -18,-11.3 -28.4,-10 -5.1,0.5 -9.9,2.3 -14.4,4.6 4.7,-2.8 9.6,-5.7 15.2,-5.9 z m 10.6,67.3 c -3.3,0.2 -6.6,0.2 -9.9,0 C 67.5,98 58,92 53.2,82.9 50.6,77.9 48.6,72.4 49,66.7 48.5,55.5 55.1,44.4 65.1,39.3 70.7,36.7 77,35 83.2,36.2 c 7.3,0.9 14.3,4.3 19.4,9.7 3.8,3.4 6.2,7.9 8.2,12.5 2,4.9 1.7,10.3 1.5,15.5 0,2.6 -0.9,5.1 -1.8,7.6 L 107.8,80 c 1.5,-4.2 2.6,-8.8 1.7,-13.2 -1.1,-6.4 -3.8,-12.6 -8.1,-17.4 -2.3,-2.6 -5.4,-4.5 -8.1,-6.6 0.8,1.8 2.8,3.9 1.4,5.9 -2.2,3.8 -7.1,2.9 -10.8,2.8 -3.9,-0.8 -8.3,-2.7 -9.5,-6.8 -0.7,-2.8 2.2,-4.3 4.4,-5.1 -2.5,-0.5 -5,0.4 -7.4,1 -9.2,2.7 -16.5,10.7 -18.4,20.1 -2.3,10.1 1.7,20.9 9,28 0.7,-3.1 0.7,-6.4 2.5,-9.1 1.6,-2.9 4.1,-5.2 6.3,-7.6 -2.7,-6.8 3.8,-14.7 10.9,-13.7 2.9,0.4 5.3,2.1 7.3,4.2 4.6,0 9.3,-0.6 13.9,0.6 1.8,1 2.3,3.2 2.9,4.9 1.1,3.3 0.8,6.8 -0.1,10 -2.1,0.1 -3.6,-1.5 -5.4,-2.4 -3.7,-2.3 -7.8,-4 -11.3,-6.6 -0.8,-2.5 -1.5,-5.4 -3.9,-6.9 -4.5,-3.7 -12.3,0.3 -12.3,6.1 -0.3,3.3 1.8,6.5 4.8,7.8 2.3,1.2 5.1,-0.3 7.2,1.3 5.5,3.3 11.3,6.1 16.7,9.6 v 0.7 c -2.4,3.2 -5.5,5.8 -8.9,8 3.4,-1.4 6.6,-3.2 9,-5.9 0.7,-0.6 1.2,-1.8 2.3,-1.7 0.6,0.5 1.3,1.1 1.8,1.7 -4.8,5.1 -11.3,8.9 -18.4,10.2 z M 68.8,49.2 c -2.2,-0.4 -2.2,-2.8 -1.1,-4.4 h 3 c 1.3,1.7 0.8,5.1 -1.9,4.4 z m 6.4,17.4 c 1.4,-1.3 2.8,-3.5 5.1,-3.1 2.1,-0.1 3.9,1.5 5.1,3.1 0.4,1.4 -0.1,2.9 -0.4,4.3 -0.6,-1.8 -0.9,-3.9 -2.7,-4.8 -2.2,-1.2 -4.8,-0.2 -7.1,0.5 z m 6.3,4.7 v 2.3 c -2.2,0.3 -5.1,-0.5 -4.7,-3.3 1.6,-0.6 3.2,0.2 4.7,1 z m 49.4,31.8 c -1.3,-4.5 -4.6,-8.3 -8.7,-10.6 -8.8,-5.1 -17.7,-10.1 -26.2,-15.6 9.6,3.9 18.4,9.6 27.6,14.4 4.9,2.5 8.3,7.3 9.7,12.5 2.1,7.8 4.5,15.6 6.6,23.5 0.6,2.6 1.8,5.1 1.7,7.8 -0.5,0 -1.4,0.1 -1.9,0.1 -3.4,-10.6 -5.7,-21.4 -8.8,-32.1 z m -23.7,49.5 c -0.3,-0.2 -0.9,-0.7 -1.2,-0.9 -0.7,-2.4 -0.8,-4.9 -1.5,-7.3 -0.6,2.9 -1.2,5.9 -1,8.9 -0.9,-3.3 -0.6,-6.7 -0.6,-10.1 -0.6,0.7 -1.1,1.5 -1.7,2.2 0.6,3 -0.6,6.2 -0.8,9.3 -1.5,-1.9 -0.8,-4.9 -0.9,-7.2 0.4,-1.5 0.1,-4.8 2.4,-4 0.1,-0.2 0.2,-0.7 0.3,-0.9 1,-0.4 1.9,-0.9 2.9,-1.3 0.3,-0.2 1,-0.6 1.3,-0.9 0.5,-0.1 1.4,-0.4 1.9,-0.5 -1,2.8 -1.5,5.7 -1.8,8.7 0.4,1.2 0.6,2.6 0.7,4 z m 2.4,-4.1 c -0.2,0.1 -0.7,0.3 -1,0.4 -0.4,-3.3 -0.2,-6.5 1.2,-9.6 0.4,-0.1 1.3,-0.4 1.8,-0.6 -1.5,3.1 -2,6.4 -2,9.8 z m 3.1,-4.6 c -0.1,2.1 0,4.3 -0.3,6.4 -0.6,-2.8 -0.5,-5.6 -0.6,-8.5 0.1,-1.6 0.1,-4.2 2.3,-4.3 -0.2,2.2 -1.2,4.2 -1.4,6.4 z m 5,-7 c -2.1,2.4 -1.8,5.9 -3.2,8.7 -0.5,-2.7 0.5,-5.4 0.7,-8.1 1.5,-1.4 3.8,-1.3 5.5,-2.4 -2.7,4.1 -2.1,9.1 -2.6,13.7 -0.5,-3.9 -0.6,-7.9 -0.4,-11.9 z m 10.9,52.7 c -1.7,-0.8 -2.3,-2.8 -4.1,-3.4 -1.5,0 -2.9,0.4 -4.3,0.8 1.1,-1.2 2.4,-2.7 4.3,-2.3 2.7,-0.3 4.3,2.6 4.1,4.9 z m 2,-23.9 c -0.5,-0.9 -1.4,-1.8 -1.5,-2.8 -4.4,-4.5 -5.8,-11.3 -4.9,-17.4 0.6,-3.1 2.6,-6.5 6,-7.2 -1.4,1.5 -3.2,2.8 -3.8,4.9 -2,6.3 0,13 2.9,18.5 2.1,1.2 4,2.8 5.9,4.3 -1.5,-0.1 -3.1,-0.2 -4.6,-0.3 z m 23.3,14 c -0.4,-0.2 -1.2,-0.7 -1.6,-0.9 0.1,-1.6 -0.6,-4.2 1.7,-4.5 0,1.8 -0.1,3.6 -0.1,5.4 z m 50,-3.8 c -4.5,-1 -9.1,-1 -13.6,-2.2 -6.5,0 -12.9,-0.1 -19.4,-0.4 5,-0.9 10,-0.5 15.1,-0.7 4.1,-0.2 8.1,1.1 12.2,1 11.7,2 23.5,4.6 34.2,9.9 -9.3,-3.2 -18.8,-5.9 -28.5,-7.6 z m 57.8,19.1 c -18.8,-11.2 -39.5,-19.6 -61.1,-23 -11.7,-1.9 -23.6,-2 -35.3,-0.2 -2.4,0.4 -4.8,1.1 -7.3,1.2 -1.8,0 -3.6,-0.5 -5.4,-0.3 -1.8,0.5 -3,2.9 -5.1,2.1 -0.9,-0.6 -1.6,-1.8 -0.8,-2.9 1.8,-3.7 2.7,-7.8 2.5,-11.9 11,-4 22.2,-7.8 33.9,-8.4 7.2,-0.4 14.3,1.7 20.2,5.8 8.9,6.5 16.4,14.9 26,20.4 3.9,2.2 7.8,4.5 12,6.1 4.9,1.5 9.8,3.1 14.9,3.9 3.5,0.3 6.2,2.9 9.5,3.8 -0.3,1.8 -2.8,2.2 -4,3.4 z m 13.7,-17.2 c -4.4,0.3 -8.6,-0.6 -13,-0.7 -12.9,-1.6 -25.6,-6.2 -35.7,-14.6 -9.1,-6.6 -16.4,-15.9 -27.1,-20.1 -11,-4.4 -23.2,-2.3 -34.3,0.6 -10.4,3 -20.5,6.6 -30.6,10.3 -1.1,0.4 -2.3,0.5 -3.5,0.6 0.1,-0.4 0.2,-1.2 0.3,-1.6 14.1,-4.7 28.1,-10.5 42.8,-13.2 11.3,-2.4 23.6,-1 33.4,5.3 9.8,6.4 17.2,16.1 27.6,21.7 12.5,7.2 27.1,9.8 41.4,9.6 -0.3,0.8 0,2.4 -1.3,2.1 z m 0.8,-5.6 c -9.9,-0.3 -20,-1.2 -29.3,-4.7 -9.3,-3.2 -17.4,-9 -24.4,-15.7 -6.7,-6.4 -14.1,-12.5 -23.1,-15.3 -6.2,-1.8 -12.7,-2.6 -19.1,-1.9 -17.2,1.8 -33.2,8.6 -49.4,14.1 -1.9,-1 -0.7,-4 0.4,-5.2 14.6,-5.1 29.2,-11 44.8,-12.8 6,-0.3 11.9,-0.4 17.9,0.1 8.4,1.4 16.4,4.9 23.1,10.1 8.3,5.9 15.1,13.8 23.9,18.9 6.6,4 14,6.3 21.6,7.3 4.7,0.1 9.3,1 14,0.8 0.3,1.4 0.7,3 -0.4,4.3 z m 0.3,-9 c -0.1,-1.2 -0.3,-2.4 -0.3,-3.5 -0.6,-0.5 -1.1,-1 -1.7,-1.4 -0.1,1.6 -0.3,3.3 -0.4,4.9 -0.8,0.1 -1.5,0.1 -2.3,0.2 0,-2.9 -0.1,-5.9 0.3,-8.8 1.3,-2.4 3.9,-4.1 6.6,-3.8 7,-1.1 14.2,-0.9 21.2,0.2 0.1,2.9 0,5.8 0.1,8.7 -7.5,1.1 -15.1,-1 -22.6,0.5 -0.2,0.9 -0.5,1.9 -0.9,3 z m 92,17.5 c -0.2,0.1 -0.5,0.4 -0.7,0.6 -0.4,-1.7 0.3,-4.6 -1.9,-5.3 -0.4,1.7 -0.1,3.9 -1.6,5.2 -0.2,-1.8 -0.3,-3.6 -0.4,-5.4 -2.3,0.8 -1.1,3.8 -2.6,5.3 -0.4,-2 -0.6,-4 -0.9,-6 -1.4,1.8 -1.3,4.2 -2.5,6.1 -0.3,-2.2 -0.3,-4.5 -0.7,-6.7 -1.4,2 -1.3,4.4 -2.1,6.6 -0.5,-2.2 -0.8,-4.4 -1.1,-6.6 -1.3,1.5 -1.2,3.7 -1.4,5.5 h -1.2 c -0.3,-1.8 0.2,-4.1 -1.3,-5.5 -0.3,1.9 -0.7,3.9 -1.2,5.7 -1.1,-2 -1.1,-4.3 -1.7,-6.4 -0.5,1.8 -0.9,3.7 -1.1,5.6 -0.3,-0.1 -0.8,-0.3 -1.1,-0.4 -0.4,-1.7 -0.9,-3.5 -1.4,-5.2 -0.3,1.7 -0.4,3.4 -0.5,5 -1.8,-0.2 -1.7,-2.4 -2.3,-3.7 -0.5,1.2 -0.9,2.4 -1.3,3.7 -1.1,-1 -1.5,-2.4 -2.1,-3.7 -0.3,1 -0.6,2.1 -0.9,3.1 -0.2,-0.1 -0.6,-0.4 -0.8,-0.5 -1.9,0.4 -3.8,0.2 -5.5,-0.7 -0.3,0.3 -0.9,0.8 -1.2,1 -0.2,-1.2 -0.4,-2.4 -0.6,-3.5 -0.5,1.1 -0.9,2.1 -1.3,3.2 -0.3,0 -0.9,0 -1.2,0.1 -0.1,-0.9 -0.3,-1.8 -0.5,-2.7 -0.7,1.1 -1.3,2.4 -2.5,3 -0.4,-1.4 -0.7,-2.8 -1,-4.2 -0.4,1.4 -0.9,2.9 -1.4,4.3 -1.8,-0.7 -0.9,-3 -2,-4.3 -0.7,1.5 0.1,4.5 -2.4,4.1 -0.1,-1.2 -0.3,-2.4 -0.5,-3.5 -1.1,1.2 -0.7,3.3 -2.4,4 -0.4,-1.3 -0.8,-2.7 -1.3,-4 -0.7,1.2 -0.1,4.1 -1.9,4 -0.5,-1.4 -0.8,-2.8 -1.3,-4.1 -0.4,1.4 -0.6,2.9 -0.9,4.4 -0.3,-0.1 -0.9,-0.2 -1.1,-0.2 -0.4,-1.2 -0.8,-2.4 -1.3,-3.6 -0.4,1.5 -0.7,3 -1,4.5 -1.7,-1.3 -1.3,-3.8 -1.9,-5.6 -0.4,2.1 -0.8,4.1 -1.3,6.2 -1.3,-1.5 -1.4,-3.6 -2.1,-5.4 -0.9,1.8 0.1,4.7 -1.9,5.6 -0.3,-1.7 -0.6,-3.4 -1,-5.1 -1.1,1.7 -1.2,3.8 -1.4,5.8 -2.1,-0.9 -0.9,-4 -1.5,-5.8 -1.4,1.9 -1.6,4.4 -2.4,6.6 -0.5,-2.4 -0.3,-4.9 -1.3,-7.2 -0.8,2.1 -0.4,5 -2.3,6.6 -0.1,-2.1 -0.1,-4.1 -0.4,-6.2 -1.7,1.6 -1.2,4.3 -2.5,6.2 -0.3,-2.5 -0.6,-4.9 -1.1,-7.4 -0.5,1.7 -0.5,3.6 -1.8,4.9 -0.4,-3.9 0,-7.8 -0.1,-11.8 0.7,0 1.4,0.1 2.1,0.1 0.2,-0.9 0.5,-1.7 0.7,-2.5 1.1,0.9 1.5,2.3 2,3.5 0.4,-1.1 0.7,-2.3 1.1,-3.5 1.4,0.5 1.2,2.3 1.7,3.5 0.7,-1.2 1.3,-2.6 2.3,-3.6 l 0.9,3.6 c 0.7,-1.3 1.4,-2.6 2.4,-3.7 l 0.6,3.3 c 1.2,-1 1.8,-2.4 2.4,-3.8 0.3,1.4 0.6,2.9 1,4.3 0.6,-1 1.1,-2 1.6,-3.1 0.3,-0.1 0.8,-0.4 1,-0.5 0.1,1.2 0.3,2.5 0.5,3.7 0.8,-1.3 1.5,-2.6 2.4,-3.8 0.4,1.4 0.8,2.9 1.1,4.3 0.5,-1.4 1,-2.8 1.6,-4.1 1.2,0.7 1,2.2 1.3,3.3 0.2,-0.1 0.7,-0.2 0.9,-0.3 0.4,-1.1 0.7,-2.2 1.5,-3 0.5,1.1 0.5,2.8 1.7,3.5 0.3,-1.2 0.6,-2.4 0.9,-3.5 1,1 1.5,2.3 2.1,3.5 0.5,-1.1 0.9,-2.3 1.5,-3.5 0.6,1.2 0.9,2.7 2.1,3.5 0.3,-1.2 0.5,-2.4 0.7,-3.6 1,1.1 1.6,2.4 2.4,3.7 0.4,-1.4 0.7,-2.8 1.1,-4.3 0.6,1.2 1.1,2.4 1.7,3.6 0.7,-0.9 1.1,-2 1.3,-3.1 1,1.1 1.6,2.4 2.3,3.7 0.3,-1.2 0.7,-2.5 1,-3.7 0.7,0.8 1.1,1.7 1.5,2.7 0.3,0 0.8,0.1 1.1,0.1 0.1,-0.9 0.3,-1.7 0.5,-2.6 1.5,0.5 1.5,2.3 2.2,3.5 0.6,-1.2 0.5,-2.9 1.9,-3.5 0.2,0.9 0.5,1.8 0.7,2.7 0.3,0 0.8,-0.1 1.1,-0.1 0.4,-1.1 0.9,-2.1 1.3,-3.2 0.3,1.3 0.7,2.5 1.3,3.7 0.7,-1.1 1.3,-2.1 2.1,-3.2 0.3,1.1 0.6,2.3 0.9,3.5 0.8,-1.2 1.5,-2.4 2.3,-3.5 0.3,1.2 0.7,2.5 1,3.7 0.8,-1.1 0.9,-3 2.4,-3.5 0.2,1.2 0.4,2.4 0.7,3.6 0.9,-1.2 1.5,-2.5 2.3,-3.7 0.4,1.2 0.7,2.4 1,3.6 1.1,-0.8 1.1,-2.3 1.7,-3.5 1,1 1.3,2.4 1.8,3.6 0.5,-1 0.9,-2 1.2,-3 0.2,-0.1 0.6,-0.4 0.8,-0.5 0.4,1.3 0.8,2.7 1.2,4 0.5,-1.4 1,-2.8 1.4,-4.2 0.8,1.2 1.5,2.4 2.3,3.7 0.2,-1.2 0.4,-2.4 0.7,-3.6 1.1,1 1.8,2.4 2.6,3.6 0.3,-1.3 0.5,-2.5 1.1,-3.7 0.3,5.3 0.1,10.7 0.1,16.1 z m -3.2,-20.9 c -5.9,-0.1 -11.9,0.3 -17.8,-0.2 -0.2,-1.4 -0.3,-2.8 -0.4,-4.2 -0.3,0.4 -0.6,0.9 -0.9,1.3 -0.1,0.9 -0.2,1.8 -0.4,2.6 -0.5,0 -1.5,-0.1 -2,-0.1 -0.3,-2.1 -0.4,-4.4 0.8,-6.2 1,-1.1 2.4,-1.8 3.8,-2.4 4.9,-0.5 9.8,-1.1 14.7,-0.8 2.8,-0.1 5.5,0.8 8.4,0.8 0.8,2.8 0.3,5.6 0.5,8.5 -2,1.2 -4.4,0.6 -6.7,0.7 z m 9.9,-8.7 c 0.3,0.2 0.8,0.7 1.1,0.9 0.2,3.6 0,7.3 0.1,11 -1.2,0 -2.5,-0.1 -3.7,-0.2 0.6,-0.7 1.1,-1.3 1.7,-2 0.3,-3.2 -0.9,-6.9 0.8,-9.7 z m -1.5,16.3 c 5.8,-0.1 11.7,0.3 17.4,-1.1 6.6,-1.1 12.9,-3.7 18.6,-7.3 11.9,-7.5 20.7,-19.4 33.9,-24.7 9.5,-4.5 20.2,-3.9 30.4,-3.4 15.4,2 29.9,7.8 44.5,12.9 0.5,1.6 0.9,3.3 0.8,5 -0.4,-0.1 -1.2,-0.2 -1.6,-0.3 -14.6,-4.9 -29,-10.9 -44.3,-13.2 -8.9,-1.5 -18.2,-0.8 -26.7,2.5 -8.3,3.3 -15.1,9.5 -21.5,15.6 -4.9,4.3 -10.1,8.5 -16,11.4 -11,5.5 -23.3,7.6 -35.5,7.6 -1.6,-1.4 -0.6,-3.6 0,-5 z m 25.6,20.5 c -4.1,1.9 -7.9,4.3 -11.9,6.4 -1.6,-0.4 -2.8,-1.7 -4.3,-2.5 2.8,-1.3 5.3,-3.5 8.5,-3.8 4.4,-0.7 8.7,-1.8 13,-3.1 -1.6,1.2 -3.4,2.2 -5.3,3 z m 61,-14.2 c -3.7,-0.2 -7.1,1.4 -10.7,1.4 -12.3,1.9 -24.6,4.9 -36.2,9.6 5.8,-3.5 12.4,-5.2 18.8,-7.3 7.2,-1.7 14.3,-3.6 21.7,-4 5.4,-1.1 11,-0.7 16.5,-0.6 2.2,0 4.4,0 6.5,0.6 -5.5,0.3 -11.1,0.4 -16.6,0.3 z m 33.3,6.8 c 0.9,-1.7 0.8,-3.6 0.8,-5.5 -0.5,-0.1 -1.3,-0.4 -1.8,-0.5 h 2.3 c 0.2,1.4 0.3,2.8 0.3,4.3 -0.6,0.5 -1.1,1.1 -1.6,1.7 z m 5.4,-5.3 c -1.6,-1.4 -3.4,-3 -5.7,-2.5 -4.8,1 -9.5,-1.2 -14.3,-1.4 -5,-1 -10,-0.7 -15,-0.7 -6.7,-0.2 -13.3,1 -20,1.8 -2.1,0.6 -4.3,1.1 -6.5,1.5 -5.3,1 -10.3,3 -15.6,4.3 -1.8,1.6 -4.1,2.3 -6.4,2.8 0,-0.4 0.1,-1.2 0.2,-1.5 1.4,-0.5 2.7,-1.6 4.3,-1.6 5.2,-3.4 10.4,-7.1 15,-11.4 2.2,-1.9 4.3,-3.9 6.7,-5.6 5.9,-5.7 14,-9.4 22.2,-9.3 12.5,0 24.3,4.5 36.1,8.2 -0.2,4.7 1,9.3 3.1,13.5 -1.4,0.7 -2.8,1.3 -4.1,1.9 z m -27.9,-34.8 c -9.4,-1.4 -19.6,-0.2 -27.7,5.1 -9.8,6.4 -17.5,15.7 -27.6,21.7 -12.6,7.9 -27.8,10.7 -42.5,10.4 0,-0.5 0.1,-1.5 0.1,-2 18.2,0.4 37.3,-4.6 51.1,-17 7,-5.9 13.3,-12.8 21.7,-16.8 5.7,-2.8 12.2,-3.8 18.5,-4 18.6,0.9 35.7,8.8 53.2,14.3 0,0.4 0.1,1.2 0.1,1.5 -0.5,0 -1.3,-0.1 -1.8,-0.2 -15,-4.3 -29.4,-11.1 -45.1,-13 z m 42.9,25.5 c 4.6,-2.5 7.3,-7.5 8.3,-12.5 1.4,-5.2 0.6,-11.6 -3.9,-15.1 3.3,0.5 5,3.8 5.7,6.7 1.2,6.1 -0.2,12.8 -4.3,17.5 -1.5,1.8 -3.8,2.5 -5.8,3.4 z m 10,20.5 c -1.6,0.6 -2,2.4 -2.8,3.7 -0.7,-1.3 -0.8,-3.1 0.5,-4.1 2,-2.4 5.8,-1.5 7.1,1.1 -1.5,-0.4 -3.2,-1.3 -4.8,-0.7 z m 7.2,-38.8 c -0.7,-2.9 -0.1,-6.1 -1.2,-8.9 l -1.5,-3.9 c 1,0.7 2.4,1.3 2.8,2.5 0.7,3.5 0.3,6.9 -0.1,10.3 z m 17.8,7 c -0.4,-3.7 -0.7,-7.4 -1.9,-11 l -1.2,-0.8 c 0.6,3.6 -0.3,7.1 -0.3,10.7 h -0.4 c 0,-3.1 0.1,-6.1 -0.5,-9.2 -0.9,2.5 -0.5,5.3 -2.1,7.5 0,-1 0,-1.9 0.1,-2.8 -0.3,-2 -0.6,-4.1 -1,-6.1 -1.1,2.7 0.2,6.3 -2,8.4 0,-0.4 0.1,-1.1 0.1,-1.5 -0.5,-2.4 -0.3,-4.9 -0.7,-7.3 -1.4,2.6 -1.5,5.6 -1.8,8.5 -0.3,-0.3 -0.9,-0.8 -1.2,-1 -0.1,-1.9 -0.1,-3.9 0.3,-5.7 -0.3,-1.1 -0.4,-2.3 -0.6,-3.5 -0.8,2.5 0,5.6 -1.9,7.6 -0.5,-2 -0.6,-4.1 -0.3,-6.2 -0.5,-2 -1.2,-4 -1.8,-6 0.7,0.4 1.5,0.7 2.2,1.1 l 1.2,0.4 c 1.4,0.7 2.9,1.4 4.5,1.9 1.5,0.2 3.5,0 4.3,1.5 1.4,0.8 3.2,1.3 4.2,2.7 1.8,3.4 1,7.2 0.8,10.8 z m 6.8,13.7 c 0.3,-4.6 -1,-9.1 -0.8,-13.7 2,0.9 2.8,3.1 2.9,5.1 0.1,3 -0.3,6.1 -2.1,8.6 z m 10.8,4.8 c -1.5,-2.6 -0.2,-5.8 -0.4,-8.7 -0.3,-1.7 -0.5,-3.5 -0.7,-5.2 0.4,0 1.1,0.2 1.5,0.2 0.4,0.8 0.8,1.5 1.2,2.3 1.4,3.7 0.7,8.2 -1.6,11.4 z m 10.6,3.8 c 0,-4.6 0,-9.2 -0.9,-13.7 1.6,0.4 2.8,1.9 2.9,3.5 0.2,3.5 0.3,7.4 -2,10.2 z m 11.8,3.6 c -0.3,0 -0.8,0.1 -1,0.2 -0.2,-3.3 0.4,-6.7 -0.5,-9.9 -0.4,-1.3 -0.3,-2.7 -0.2,-4.1 4.4,3.3 2.8,9.3 1.7,13.8 z m 10.7,3.6 c -1.4,-0.8 -0.9,-2.5 -1,-3.8 0.2,-3 -0.9,-5.8 -0.8,-8.8 0.8,0.5 2,0.7 2.3,1.8 1.4,3.5 0.6,7.4 -0.5,10.8 z m 11.5,2.9 c -0.5,1.1 -1,2.1 -1.6,3.2 -1,-3.3 -0.4,-6.7 -0.4,-10 -0.3,-1.4 -0.5,-2.8 -0.5,-4.1 1,0.2 2.1,0.5 2.4,1.7 1,2.9 0.3,6.1 0.1,9.2 z m 7.9,8.5 c 0.2,-5 1.3,-10.1 0.7,-15.1 -0.8,-3.3 -3.8,-5 -6.5,-6.5 1.5,-0.1 3,-0.5 4.5,-0.1 2.5,1.3 3.7,4 4.3,6.6 0.4,3.7 0,7.5 -1.2,11 0.4,1.6 -1,2.9 -1.8,4.1 z" />
        </g>
        <path
           id="XMLID_741_"
           class="st97"
           d="m 323.7,225.5 c 2.1,0 4.3,0.1 6.4,0.1 0,3 -0.1,6 -1.6,8.6 -1.7,0.1 -3.4,0.1 -5,-0.1 0.2,-2.8 -0.1,-5.7 0.2,-8.6 z" />
        <path
           id="XMLID_740_"
           class="st97"
           d="m 362.2,236.5 c 1.4,1.8 1.7,4.2 2.5,6.3 0.6,2.7 1.6,5.4 1.6,8.3 0.1,1.1 -0.9,2.6 -2.1,1.8 -2.3,-1.4 -2,-4.5 -2,-6.8 0.1,-3.2 -0.3,-6.4 0,-9.6 z" />
        <path
           id="XMLID_311_"
           class="st97"
           d="m 299.1,257.7 c 0.1,-3.5 0,-7 -0.1,-10.5 -2.3,1.3 -4.4,3 -6.3,4.8 v 5.7 z" />
      </g>
      <path
         id="XMLID_312_"
         class="st98"
         d="m 771.8,-215.7 c 0.2,-2 0.6,-4 0.6,-6 0.5,0.9 0.9,1.8 1.4,2.8 -0.3,-2.2 -0.8,-4.3 -1.2,-6.5 -0.5,3.2 -1,6.5 -1,9.7 z" />
      <path
         id="XMLID_613_"
         class="st97"
         d="m 1034.1,-337.1 c 0.7,0.4 1.5,0.7 2.2,1.1 0.1,2.7 0.4,5.4 0.4,8.1 -0.3,-1 -0.6,-2.1 -0.9,-3.1 -0.4,-2.2 -1.1,-4.1 -1.7,-6.1 z" />
      <g
         id="XMLID_555_"
         transform="translate(502.3,-473.4)">
        <path
           id="XMLID_558_"
           class="st97"
           d="m 534,137.3 1.2,0.4 c 0.3,1 0.5,2.1 0.6,3.2 -0.8,2.5 0,5.6 -1.9,7.6 -0.5,-2 -0.6,-4.1 -0.3,-6.2 0.3,1.1 0.6,2.1 0.9,3.1 -0.1,-2.7 -0.4,-5.4 -0.5,-8.1 z" />
      </g>
      <g
         id="XMLID_553_"
         transform="translate(502.3,-473.4)">
        <path
           id="XMLID_554_"
           class="st97"
           d="m 124.2,145.5 c 0.7,-3.1 2.6,-6.5 6,-7.2 -1.4,1.5 -3.2,2.8 -3.8,4.9 -2,6.2 0,13 2.9,18.5 -0.1,0.3 -0.2,0.9 -0.2,1.2 -4.4,-4.6 -5.8,-11.3 -4.9,-17.4 z" />
      </g>
      <g
         id="XMLID_551_"
         transform="translate(502.3,-473.4)">
        <path
           id="XMLID_552_"
           class="st97"
           d="m 537.4,139 c 0.7,1.1 1.4,2.3 1.7,3.6 -1.4,2.6 -1.5,5.6 -1.8,8.5 -0.3,-0.3 -0.9,-0.8 -1.2,-1 -0.1,-1.9 -0.1,-3.9 0.3,-5.7 0.2,0.6 0.5,1.2 0.8,1.8 0.1,-2.4 0,-4.8 0.2,-7.2 z" />
      </g>
      <g
         id="XMLID_507_"
         transform="translate(502.3,-473.4)">
        <path
           id="XMLID_508_"
           class="st97"
           d="m 346.2,153.2 c 0.4,0 1.3,0.1 1.7,0.2 0.1,1.9 0.3,3.7 0.4,5.6 7.9,0.4 15.9,-0.1 23.8,0.2 -2.1,1.1 -4.5,0.5 -6.7,0.6 -5.9,-0.1 -11.9,0.3 -17.8,-0.2 -0.2,-1.4 -0.3,-2.8 -0.4,-4.2 -0.3,0.4 -0.6,0.9 -0.9,1.3 -0.1,-1.1 -0.1,-2.3 -0.1,-3.5 z" />
      </g>
      <g
         id="XMLID_505_"
         transform="translate(502.3,-473.4)">
        <path
           id="XMLID_506_"
           class="st97"
           d="m 274.6,153.6 c 1.6,1.6 1.7,3.9 1.6,6 -0.6,-0.5 -1.1,-1 -1.7,-1.4 -0.1,1.6 -0.3,3.2 -0.4,4.9 -0.8,0.1 -1.5,0.1 -2.3,0.2 0,-2.9 -0.2,-5.9 0.3,-8.8 0,2.6 0,5.1 0.1,7.7 0.6,0.5 2,0.2 1.6,-0.9 0.2,-2.6 0.4,-5.1 0.8,-7.7 z" />
      </g>
      <g
         id="XMLID_469_"
         transform="translate(502.3,-473.4)">
        <path
           id="XMLID_472_"
           class="st97"
           d="m 330.1,177.1 c 0.4,-0.8 0.8,-1.7 1.2,-2.5 0.5,1 0.9,1.9 1.4,2.9 0.5,-1 1.1,-2 1.6,-3 0.4,1.1 0.9,2.3 1.3,3.4 -1.8,0.3 -3.7,0.2 -5.5,-0.8 z" />
      </g>
      <g
         id="XMLID_467_"
         transform="translate(502.3,-473.4)">
        <path
           id="XMLID_468_"
           class="st97"
           d="m 415.7,179.4 c 1.4,-0.5 2.7,-1.6 4.3,-1.6 0.5,0.1 1.5,0.2 1.9,0.3 -1.8,1.6 -4.1,2.3 -6.4,2.8 0.1,-0.3 0.2,-1.1 0.2,-1.5 z" />
      </g>
      <g
         id="XMLID_462_"
         transform="translate(502.3,-473.4)">
        <path
           id="XMLID_463_"
           class="st97"
           d="m 120.2,187.1 c 1.1,-1.2 2.4,-2.7 4.3,-2.3 2.7,-0.3 4.3,2.6 4.1,4.9 -1.7,-0.8 -2.3,-2.8 -4.1,-3.4 -1.4,-0.1 -2.9,0.4 -4.3,0.8 z" />
      </g>
      <path
         id="XMLID_456_"
         class="st97"
         d="m 802.5,-281.4 c 17.1,-3.7 35.1,-3.7 52,0.7 7.8,2.1 15.5,5.2 21.9,10.3 2.6,2.2 4.2,5.3 5.8,8.2 -2.6,1.8 -6.4,3.9 -5.5,7.7 -6.8,-9.1 -16.4,-15.9 -26.8,-20 -10.3,-4 -21.6,-5 -32.5,-3.4 -14.9,2.2 -28.6,10.2 -38.3,21.6 -0.5,-1 -1,-2 -1.4,-3 0.1,-0.3 0.4,-0.8 0.6,-1.1 0.9,0.3 1.9,0.5 2.8,0.8 -0.1,-0.8 -0.2,-1.5 -0.4,-2.3 -2.2,-0.3 -4.3,-0.8 -6.4,-1.3 -0.3,0.7 -0.6,1.3 -0.9,2 -0.5,0 -1.1,-0.1 -1.6,-0.1 1.8,-3.4 3.6,-7 6.7,-9.4 6.9,-5.6 15.5,-8.5 24,-10.7 z" />
      <g
         id="XMLID_450_"
         transform="translate(502.3,-473.4)">
        <path
           id="XMLID_332_"
           class="st97"
           d="m 269.3,257.7 c 0,-3.3 0.5,-6.5 1,-9.7 0,-2.3 0.4,-4.6 1.2,-6.8 0.6,-1.5 1.2,-3 2,-4.4 0.2,2.6 -0.5,5.3 0.2,7.9 0.4,1.1 0.5,2.3 0.1,3.4 -0.6,3.2 -0.8,6.4 -0.8,9.6 h 2.7 c 0,-4.7 0,-9.4 1.1,-14 0.8,-3.3 1.3,-6.8 3.5,-9.6 -1.3,5.8 -3.1,11.6 -3.1,17.6 0,2 -0.1,4 -0.1,5.9 h 4.6 c -0.9,-0.7 -1.8,-1.5 -2.2,-2.6 -1.3,-6.9 0.8,-14 4.2,-20 1.1,-1.8 2,-3.8 2.2,-6 -0.2,-1.8 0.3,-3.6 0.7,-5.4 0.4,1.3 0.7,2.7 1,4.1 2.8,-3 5.9,-5.8 7.1,-9.8 0.7,5 -1.1,9.9 -0.8,15 0.9,-0.7 1.8,-1.3 2.7,-2 3.2,-4.1 4.3,-9.4 4.2,-14.5 -0.9,-1.2 0.3,-2.4 1,-3.2 0.5,1.4 1,3.1 -0.5,4 0.4,3.3 0.1,6.6 0.1,9.9 1.5,-0.8 3.3,-1.4 4.5,-2.6 1,-1.2 1.5,-2.8 1.8,-4.4 0.3,-3.3 0.8,-6.6 0.8,-9.9 0.8,4.4 0.5,8.9 0.5,13.3 1.6,-0.6 3.2,-1.2 4.9,-1.7 0.3,-0.8 0.7,-1.5 1.1,-2.3 0.7,-3.5 0.1,-7.3 1.4,-10.7 1,4.1 0.3,8.3 0.5,12.5 1.5,-0.2 3,-0.2 4.4,-0.7 0.7,-0.9 0.9,-2.1 1.3,-3.1 l -0.3,-3.9 c 0.1,-1.5 0.3,-3 0.5,-4.5 h 1.4 c 0.1,1.1 0.2,2.3 0.4,3.4 -0.1,2.9 -0.2,5.9 0.5,8.8 1.6,-0.5 3.9,-0.1 4.8,-1.7 0,-3.2 0,-6.4 0.2,-9.6 0.3,-0.1 1,-0.3 1.3,-0.4 0.7,3.9 1.4,7.8 0.5,11.7 1.4,0.4 2.8,0.6 4.2,0.8 0.5,-0.9 1,-1.7 1.5,-2.6 0.3,-3.1 -0.5,-6.5 0.9,-9.4 1.2,4.5 0.4,9.3 1.5,13.8 1.4,0.5 2.8,0.9 4.2,1.1 2.2,-3.4 0.6,-7.7 2,-11.2 0.5,4.3 0.4,8.6 0.5,12.9 1,2 3.4,3 5.2,4.4 0.2,-0.2 0.6,-0.7 0.8,-1 0.7,-4.1 0.5,-8.4 -0.2,-12.5 1.7,3.6 4.8,6.1 7.4,9 0.2,-1.4 0.4,-2.9 0.7,-4.3 0.2,2.7 0.7,5.3 1.4,7.9 2.7,4.1 4.5,8.7 6.5,13.2 0.9,-3.6 -1.5,-6.9 -0.4,-10.5 1.5,5.1 2,10.5 2.1,15.9 0.3,2.9 0.7,5.9 0.6,8.8 h 6.6 c 0,-3.5 -0.8,-6.9 -1.2,-10.3 -1.1,-3 -2.2,-6 -2.8,-9.2 1,0.9 2.1,1.8 3.1,2.8 -1.1,-3.2 -2.7,-6.3 -2.8,-9.7 1.7,2.2 2.9,4.8 3.6,7.5 2.4,6 3.2,12.5 3,18.9 h 2.7 c 0,-10.9 -3,-21.8 -8.9,-31 -7.5,-12.1 -19.7,-21.1 -33.3,-25.1 -7.3,-2.2 -15,-2 -22.5,-1.6 -20.6,2 -39.3,16.4 -47,35.6 -2.9,7 -4.3,14.6 -4.2,22.2 z" />
      </g>
      <path
         id="XMLID_444_"
         class="st97"
         d="m 856.8,-250.5 c 1.6,1.9 3,3.9 4.4,5.9 2.6,3.3 1.7,7.6 1.9,11.5 -0.1,2.5 0.7,5.8 -1.8,7.4 -1.6,-1.2 -3.1,-2.4 -4.5,-3.8 0.3,-7 -0.4,-14 0,-21 z" />
      <path
         id="XMLID_443_"
         class="st97"
         d="m 790.7,-243.3 c 1.3,-2 2.6,-4 4.1,-5.8 0.1,5.3 -1,10.5 -1,15.8 -0.1,1.8 0,3.7 -0.4,5.5 -1.3,3.1 -3.8,5.4 -6.2,7.6 -0.1,-3.6 0.2,-7.3 -0.1,-11 l -0.9,0.5 c -0.7,3 -0.1,6.3 -0.5,9.4 H 785 c -0.1,-2.5 -0.4,-5.1 -0.1,-7.6 0.6,-2.1 3,-3.4 2.9,-5.8 0.1,-3 1.1,-6 2.9,-8.6 z" />
      <path
         id="XMLID_124_"
         class="st97"
         d="m 820.1,-215.7 c -0.1,-4 0,-8 0,-12 1.4,-0.6 2.9,-1.2 4.3,-1.7 0.1,-1.4 0.1,-2.8 0.2,-4.2 -2.1,0 -4.1,0.1 -6.2,0.2 -0.3,5.9 -0.4,11.8 -0.4,17.8 h 2.1 z" />
      <path
         id="XMLID_313_"
         class="st97"
         d="m 827.9,-215.7 c -0.1,-4.5 0.1,-9.1 -0.1,-13.6 0.9,0.1 1.8,0.1 2.8,0.2 1.5,-0.8 1.6,-2.4 1.6,-3.9 -2,-0.2 -4,-0.3 -6,-0.5 -0.3,5.9 -0.2,11.8 -0.1,17.7 z" />
      <path
         id="XMLID_314_"
         class="st97"
         d="m 841.9,-215.7 h 6 c 0.1,-4.5 -0.1,-9 0,-13.4 -2.1,-1 -4.2,-1.8 -6.3,-2.4 0,4.7 0.3,9.5 0.4,14.2 0,0.5 -0.1,1.1 -0.1,1.6 z" />
      <g
         id="XMLID_384_"
         transform="translate(502.3,-473.4)">
        <g
           id="XMLID_407_">
          <path
             id="XMLID_410_"
             class="st97"
             d="m 233.6,196 c -5.5,-0.4 -11.2,-0.8 -16.4,1.3 -1,0.3 -1.7,1 -2.1,1.9 2.4,0 4.7,-0.6 7,-0.8 5.6,-0.8 11.3,0.1 16.9,-0.4 -1.1,-1.8 -3.6,-1.4 -5.4,-2 z m -12.8,1.2 c 4.8,-1.3 10.1,-1.9 14.7,0.3 -4.8,0.3 -9.8,0.6 -14.7,-0.3 z" />
        </g>
        <path
           id="XMLID_391_"
           class="st97"
           d="m 57.4,230.2 c 1.5,-2.2 3.1,-4.4 4.4,-6.8 0.4,1.4 0.7,2.9 -0.2,4.2 -0.7,1.6 -2.7,1.9 -4.2,2.6 z" />
      </g>
      <g
         id="XMLID_325_"
         transform="translate(502.3,-473.4)">
        <g
           id="XMLID_330_">
          <path
             id="XMLID_451_"
             class="st97"
             d="m 446.1,231.3 c -0.2,-6.8 0,-13.6 -1.2,-20.3 0,-2.2 -2.3,-3.3 -3.7,-4.6 -1.2,0.7 -2.4,1.4 -3.7,2.1 -2.2,0.4 -4.4,0 -6.6,-0.1 1.9,0.8 3.8,1.6 5.5,2.6 -1.3,0.3 -2.6,0.4 -4,0.7 1.7,0.8 3.4,1.5 5.1,2.4 -2,0.6 -4,1.3 -6,1.6 -0.2,-0.6 -0.4,-1.2 -0.5,-1.8 -0.1,1.9 -2,1.2 -3.3,1.3 -8,0.5 -15.9,-0.1 -23.9,0.2 -3.6,0.2 -7.2,0.6 -10.9,0.4 1.8,-1.1 3.7,-2.1 5.6,-3.1 -1.4,-0.2 -2.7,-0.4 -4.1,-0.7 2.4,-0.7 4.8,-1 7.3,-1.5 -1.5,-0.3 -3,-0.5 -4.4,-0.8 -1,-0.3 -2,-0.7 -3,-1.1 1.7,-0.4 3.5,-0.8 5.3,-1 -1.6,-0.6 -3.2,-1.2 -4.7,-2 1.3,-0.4 2.7,-0.7 4,-1 -2.7,-0.4 -4.8,-2.3 -7.4,-3.1 -1.8,0.5 -2.9,2.3 -4.2,3.5 1,0 2,0 2.9,0.1 -0.6,0.4 -1.1,1 -1.8,1.4 -0.1,0.1 -0.2,0.1 -0.4,0.2 -0.2,0.1 -0.5,0.2 -0.7,0.3 -0.3,0.1 -0.7,0.1 -1.1,0.1 h -0.1 -0.3 c -0.1,0 -0.1,0 -0.2,-0.1 -0.6,-0.3 -1.1,-1 -1.5,-1.5 -4,-3.3 -8.8,-5.9 -13.8,-7.4 5.4,3.7 11.1,7.3 14.9,12.8 -1.8,-1 -3.5,-2.1 -5.4,-3 2,3 4.6,5.5 6.4,8.6 l -2.7,-0.3 c 1.6,3 4.6,6.3 3.1,10 -2.3,-5 -4.5,-10 -7.1,-14.9 -2.6,1.9 -6.5,3.9 -5.5,7.7 8.8,11 13.3,24.9 13.4,38.9 h 6.7 v -19.5 c 0,-7 4.5,-12.7 10,-12.7 h 17 c 5.5,0 10,5.7 10,12.7 v 19.5 h 8 v -18.2 c 2.9,-2.5 6.3,-4.7 7,-8.4 z" />
          <path
             id="XMLID_454_"
             class="st97"
             d="m 278.8,213.6 c -0.1,-0.8 -0.3,-1.5 -0.4,-2.3 -2.2,-0.3 -4.3,-0.8 -6.4,-1.3 -0.3,0.7 -0.6,1.3 -0.9,2 -0.5,0 -1.1,-0.1 -1.6,-0.1 -2.6,4.9 -4.7,10.1 -7.4,15 -0.9,-4 1.1,-7.6 3.3,-10.8 l -2.7,0.3 c 1.7,-3 4,-5.6 6.5,-8 -0.9,0 -2.6,0.1 -3.5,0.1 3.4,-4.7 8.7,-7.4 13.2,-10.8 -3.1,1.2 -6.2,2.4 -9,4.2 -2.1,1.2 -4,2.9 -6.2,3.9 0.4,-0.5 0.8,-1.1 1.3,-1.6 -0.5,-1.6 -0.8,-3.3 -1.6,-4.7 -1.8,-0.9 -3.9,-1.1 -5.9,-0.9 -2,0.1 -2.5,2.5 -3.3,3.9 -0.1,0.1 -0.2,0.5 -0.3,0.6 -1.4,0.3 -2.8,0.5 -4.2,0.7 1.4,0.6 2.9,1.2 3.9,2.4 l -3.9,0.6 c -0.7,0.3 -1.4,0.5 -2.1,0.8 2,0.2 4,0.4 6,0.5 -1.3,1.9 -3.9,1.6 -5.9,2.2 2.4,0.5 4.9,0.7 7.3,1.6 -1.5,0.3 -3.1,0.4 -4.6,0.5 1.3,1 2.7,2 4,3 -9.6,-0.4 -19.2,-0.4 -28.8,-0.3 -4.7,0.1 -9.3,1.2 -13.9,1.7 1,-1.1 2.1,-2.2 3.7,-2.2 0.5,-0.1 1.3,-0.3 1.8,-0.4 -1.9,0 -3.7,-0.1 -5.6,-0.2 0.9,-0.6 1.9,-1.2 2.9,-1.7 0.7,-0.3 1.5,-0.6 2.2,-0.9 -1.4,-0.4 -2.8,-0.6 -4.2,-1.1 -2.3,-1.2 -3,-3.8 -3.9,-6.1 l -2.4,3.6 c -0.8,-0.5 -1.7,-1 -2.5,-1.4 -1.3,3.7 -0.7,7.7 -0.8,11.5 0.1,4.3 -0.4,8.6 0.4,12.9 0.8,3.8 4.1,6.1 6.9,8.5 v 18.2 h 8.1 v -23.4 c 0,-6.9 4.5,-12.4 10,-12.4 h 17.1 c 5.5,0 10,5.5 10,12.4 v 23.4 h 6.9 c 0,-14.7 5.2,-29.5 14.7,-40.8 -0.5,-1 -1,-2 -1.4,-3 0.1,-0.3 0.4,-0.8 0.6,-1.1 z" />
        </g>
      </g>
      <g
         id="XMLID_316_"
         transform="translate(502.3,-473.4)">
        <path
           id="XMLID_317_"
           class="st97"
           d="m 395.6,202.6 c 5.6,-0.6 11.2,0.3 16.8,0.1 5.5,0.2 11.2,-0.6 16.7,0.6 -7.5,-0.2 -15,-0.2 -22.4,-0.2 -3.3,-0.1 -6.2,1.6 -9.2,2.8 1.6,0.5 3.2,1 4.8,1.7 -1.7,0.4 -3.4,0.7 -5.1,1 0.1,0.3 0.2,0.8 0.2,1.1 -1,-0.3 -2,-0.7 -3,-1.1 1.7,-0.4 3.5,-0.8 5.3,-1.1 -1.6,-0.6 -3.2,-1.2 -4.7,-2 1.3,-0.4 2.7,-0.7 4,-1 0.3,0 1,-0.1 1.3,-0.2 -1.5,-0.5 -3.1,-1.1 -4.7,-1.7 z" />
      </g>
      <g
         id="XMLID_306_"
         transform="translate(502.3,-473.4)">
        <path
           id="XMLID_308_"
           class="st97"
           d="m 322.8,209.2 h 1.4 c 0.1,1.1 0.2,2.3 0.4,3.4 -0.7,0.3 -1.5,0.7 -2.2,1 0.1,-1.4 0.3,-2.9 0.4,-4.4 z" />
      </g>
      <g
         id="XMLID_304_"
         transform="translate(502.3,-473.4)">
        <path
           id="XMLID_305_"
           class="st97"
           d="m 337.6,219.7 c 0.3,-3.1 -0.5,-6.5 0.9,-9.4 1.2,4.5 0.4,9.3 1.5,13.8 -0.3,-0.1 -0.8,-0.3 -1.1,-0.4 -0.2,-2 -0.2,-4.1 -0.2,-6.1 -0.3,0.7 -0.7,1.4 -1.1,2.1 z" />
      </g>
      <g
         id="XMLID_296_"
         transform="translate(502.3,-473.4)">
        <path
           id="XMLID_297_"
           class="st97"
           d="m 398.6,212.6 h 1.7 c -0.5,0.6 -0.8,1.3 -0.9,2 0.4,0 1.2,0.1 1.5,0.1 8.9,0.4 17.9,-0.4 26.8,0.4 -8,0.5 -15.9,-0.1 -23.9,0.2 -3.6,0.2 -7.2,0.6 -10.9,0.4 1.9,-1.1 3.8,-2.2 5.7,-3.1 z" />
      </g>
      <g
         id="XMLID_294_"
         transform="translate(502.3,-473.4)">
        <path
           id="XMLID_295_"
           class="st97"
           d="m 300.8,216.5 c -0.9,-1.2 0.3,-2.4 1,-3.2 0.5,1.4 1,3.1 -0.5,4 -0.1,-0.1 -0.4,-0.6 -0.5,-0.8 z" />
      </g>
      <g
         id="XMLID_288_"
         transform="translate(502.3,-473.4)">
        <path
           id="XMLID_290_"
           class="st97"
           d="m 352.6,230.2 c 0.7,-4.1 0.5,-8.4 -0.2,-12.5 1.7,3.6 4.8,6.1 7.4,9 0.2,-1.4 0.4,-2.9 0.7,-4.3 0.2,2.7 0.7,5.3 1.4,7.9 -0.8,-1 -1.7,-1.9 -2.6,-2.8 -0.1,0.3 -0.2,1 -0.3,1.4 -1.3,-2.1 -2.8,-4.1 -4.4,-5.9 -0.4,7 0.3,14 -0.1,21.1 -0.9,-5.1 -0.3,-10.4 -0.4,-15.6 -0.5,0.5 -1,1.1 -1.5,1.7 z" />
      </g>
      <g
         id="XMLID_262_"
         transform="translate(502.3,-473.4)">
        <path
           id="XMLID_279_"
           class="st97"
           d="m 316.5,225.7 c 2.1,-0.1 4.1,-0.1 6.2,0 0,2.9 0.1,6.3 -2,8.6 -1.5,0.2 -3,0.2 -4.5,0.2 0,-2.9 0,-5.9 0.3,-8.8 z" />
        <path
           id="XMLID_272_"
           class="st97"
           d="m 331.4,226.7 c 1.3,-2 4,0.2 5.9,0.3 1.2,2.4 0.4,5.8 -0.8,8.3 -1.8,0 -3.6,-0.2 -5.3,-1 0.3,-2.6 0.2,-5.1 0.2,-7.6 z" />
        <path
           id="XMLID_271_"
           class="st97"
           d="m 308.7,228.3 c 1.3,-1.9 4.2,-1.5 6.3,-1.9 -0.1,2.6 0.3,5.4 -0.8,7.8 -1.2,1.9 -3.8,1.9 -5.7,2.5 0,-2.8 -0.2,-5.6 0.2,-8.4 z" />
        <path
           id="XMLID_270_"
           class="st97"
           d="m 339.2,227.6 c 2.1,0.5 4.6,0.8 6.2,2.4 0.1,1.7 0.1,3.4 0,5.1 -0.4,0.9 -0.9,1.8 -1.4,2.7 -1.6,-0.5 -3.2,-1 -4.8,-1.4 z" />
        <path
           id="XMLID_269_"
           class="st97"
           d="m 303.9,228.9 3.3,-0.6 c -0.1,2.7 0.3,5.5 -1,8 -1,2.2 -3.4,3 -5.4,4 0,-0.5 -0.1,-1.5 -0.1,-1.9 0.7,-3.3 -0.1,-7.5 3.2,-9.5 z" />
        <path
           id="XMLID_268_"
           class="st97"
           d="m 293.8,235.5 c 0.9,-1.6 2.7,-2.4 4.1,-3.5 0.6,0.4 1.1,1 1.5,1.6 0,2.7 -0.5,5.4 -1.6,7.8 -1.2,1.8 -3.1,2.9 -4.8,4.2 0.1,-3.4 0.2,-6.7 0.8,-10.1 z" />
        <path
           id="XMLID_150_"
           class="st97"
           d="m 306.6,257.7 c 0.4,-4.9 0.3,-9.8 0.2,-14.7 -2.1,0.7 -4.2,1.8 -6.2,2.8 0,4 -0.3,7.9 -0.4,11.9 z" />
        <path
           id="XMLID_151_"
           class="st97"
           d="m 361.1,257.7 c 0,-0.3 0,-0.6 -0.1,-0.9 -0.7,-1.5 -1.8,-2.6 -2.9,-3.8 -1.1,-0.8 -2.2,-1.6 -3.3,-2.3 v 6.9 z" />
        <path
           id="XMLID_152_"
           class="st97"
           d="m 291.3,257.7 v -4 c -2,1.2 -3.8,2.7 -5.7,4 z" />
      </g>
      <g
         id="XMLID_256_"
         transform="translate(502.3,-473.4)">
        <path
           id="XMLID_257_"
           class="st97"
           d="m 345.4,230 c 0.7,0.1 1.4,0.2 2,0.3 l -0.1,0.3 c -0.7,2.7 -0.4,5.6 -0.4,8.4 0.6,0.4 1.3,0.9 2,1.4 -0.8,-0.1 -1.7,-0.2 -2.5,-0.4 -0.4,-1.6 -0.9,-3.3 -0.9,-5 0,-1.6 0,-3.3 -0.1,-5 z" />
      </g>
      <g
         id="XMLID_243_"
         transform="translate(502.3,-473.4)">
        <path
           id="XMLID_245_"
           class="st97"
           d="m 346.9,239.1 c 0,-2.8 -0.3,-5.7 0.4,-8.4 2,1 3.9,2.1 5.7,3.5 0.1,2.5 0.3,5.1 -0.2,7.5 -1.2,1.4 -2.8,-0.7 -3.9,-1.2 -0.7,-0.5 -1.4,-1 -2,-1.4 z" />
      </g>
      <g
         id="XMLID_157_"
         transform="translate(502.3,-473.4)">
        <g
           id="XMLID_159_">
          <path
             id="XMLID_162_"
             class="st97"
             d="m 377.2,238.8 c -0.7,-2.7 -1.9,-5.3 -3.6,-7.5 0.1,3.5 1.7,6.5 2.8,9.7 -1,-0.9 -2.1,-1.8 -3.1,-2.8 0.7,3.1 1.7,6.2 2.8,9.2 2.1,-2.4 1,-5.7 1.1,-8.6 z m -1.3,6.2 c -1,-0.1 -1.2,-0.6 -0.5,-1.4 1,0.1 1.2,0.5 0.5,1.4 z" />
        </g>
      </g>
      <g
         id="XMLID_144_"
         transform="translate(502.3,-473.4)">
        <path
           id="XMLID_259_"
           class="st97"
           d="m 323.7,257.7 c -0.1,-5.9 -0.1,-11.8 0.1,-17.7 2,0.1 4,0.3 6,0.5 -0.1,1.5 -0.2,3.1 -1.6,3.9 0.6,0.1 1.3,0.1 1.9,0.2 0,-1.7 0,-3.4 -0.2,-5.1 -2.1,-0.1 -4.3,-0.2 -6.4,-0.2 v 18.5 z" />
      </g>
      <g
         id="XMLID_142_"
         transform="translate(502.3,-473.4)">
        <path
           id="XMLID_145_"
           class="st97"
           d="m 377.2,257.7 h 0.7 c 0.2,-3.2 0.5,-6.5 1.4,-9.6 0,3.2 0.2,6.4 0.2,9.6 h 0.6 c 0.2,-6.4 -0.6,-12.9 -3,-18.9 -0.1,2.9 1,6.2 -1.1,8.6 0.5,3.5 1.3,6.9 1.2,10.3 z" />
      </g>
      <g
         id="XMLID_134_"
         transform="translate(502.3,-473.4)">
        <path
           id="XMLID_143_"
           class="st97"
           d="m 310.9,257.7 c 0.6,-2.7 1.1,-5.4 2.6,-7.7 1.7,-2.9 0.8,-6.3 1,-9.5 -2.1,0.5 -4.1,1 -6.1,1.7 -0.3,5.2 -0.4,10.4 -0.4,15.5 z" />
        <path
           id="XMLID_146_"
           class="st97"
           d="m 333.4,257.7 c 0,-3.5 -0.1,-7.1 0.2,-10.6 1.7,1.4 2.9,3.4 4,5.3 0.4,-3.7 0.2,-7.4 0.2,-11.1 -2.1,-0.5 -4.2,-1 -6.4,-1.5 v 17.9 z" />
        <path
           id="XMLID_136_"
           class="st97"
           d="m 347.5,257.7 h 6 c 0,-2.9 0,-5.8 -0.1,-8.7 -1.7,-1.1 -3.5,-2.3 -5.3,-3.2 -0.6,2.4 -0.8,4.9 -0.6,7.4 z" />
      </g>
      <g
         id="XMLID_128_"
         transform="translate(502.3,-473.4)">
        <path
           id="XMLID_135_"
           class="st97"
           d="M 339.6,257.7 V 256 c -0.1,-4.7 -0.4,-9.5 -0.4,-14.2 -0.2,5.3 -0.2,10.6 -0.2,15.9 z" />
      </g>
      <g
         id="XMLID_125_"
         transform="translate(502.3,-473.4)">
        <path
           id="XMLID_127_"
           class="st97"
           d="m 375.4,243.6 c 1,0.1 1.2,0.6 0.5,1.4 -1,-0.1 -1.2,-0.6 -0.5,-1.4 z" />
      </g>
      <g
         id="XMLID_114_"
         transform="translate(502.3,-473.4)">
        <path
           id="XMLID_126_"
           class="st97"
           d="m 347.5,257.7 c 0,-1.5 0,-3 -0.1,-4.5 -0.2,-2.5 0,-5 0.6,-7.4 -0.3,-0.1 -0.9,-0.4 -1.2,-0.5 0,4.1 0.1,8.3 0.1,12.5 h 0.6 z" />
      </g>
      <g
         id="XMLID_68_"
         transform="translate(502.3,-473.4)">
        <path
           id="XMLID_115_"
           class="st98"
           d="m 361.1,257.7 h 1.8 v -0.2 c -1.4,-1.7 -3,-3.2 -4.8,-4.4 1.1,1.2 2.2,2.3 2.9,3.8 0.1,0.3 0.1,0.6 0.1,0.8 z" />
      </g>
      <path
         class="st16"
         d="m 755.3,-233 v 0.5 c -0.5,-0.1 -0.7,-0.2 0,-0.5 z"
         id="path1225" />
      <path
         id="XMLID_1_"
         d="M 1106.2,-198.4 H 548.7 c -21.1,0 -38.3,-17.1 -38.3,-38.3 v -191.7 c 0,-21.1 17.1,-38.3 38.3,-38.3 h 557.5 c 21.1,0 38.3,17.1 38.3,38.3 v 191.8 c 0,21.1 -17.2,38.2 -38.3,38.2 z"
         fill="none"
         stroke="#030303"
         stroke-width="7"
         stroke-miterlimit="10.43" />
    </g>
  </g>
  <style
     id="style824">.st0{fill:#050505}.st1{fill:#e8e8e8}.st2{fill:#fafafa}.st3{fill:#f9f9fa}.st4{fill:#f7f8f8}.st5{fill:#737373}.st7{fill:#fdfeff}.st8{fill:#4f4f4f}.st9{fill:#f3f3f3}.st11{fill:#535454}.st12{fill:#4d4d4d}.st14{fill:#f1f0f0}.st15{fill:#f5f6f6}.st16{fill:#fff}.st19{fill:#f2f2f2}.st20{fill:#6b6c6c}.st21{fill:#555554}.st25{fill:#f4f4f4}.st27{fill:#818181}.st29{fill:#7c7c7c}.st32{fill:#8e8d8d}.st33{fill:#070707}.st34{fill:#d4d4d4}.st35{fill:#030303}.st38{fill:#939393}.st39{fill:#b0b0b0}.st49{fill:#080808}.st57{fill:#333332}.st59{fill:#090909}.st62{fill:#6f7070}.st66{fill:#5b5b5b}.st76{fill:#898989}.st80{fill:#727272}.st96,.st97,.st98{fill:#030303;stroke:#030303}.st96{stroke-width:2.5;stroke-miterlimit:10}.st97,.st98{stroke-miterlimit:10.43}.st98{stroke-width:9.380000e-02}</style>
</svg>
